{"title":"Unstoppable 2010 R5 Hindi x264 - Henry","uid":6058170,"size":339103723,"categoryP":"video","categoryS":"movies","magnet":"?xt=urn:btih:4fd3c0f64bd973515dcd18c412f0eba21d2703bc&amp;dn=Unstoppable+2010+R5+Hindi+x264+-+Henry&amp;tr=udp%3A%2F%2Ftracker.openbittorrent.com%3A80&amp;tr=udp%3A%2F%2Fopen.demonii.com%3A1337&amp;tr=udp%3A%2F%2Ftracker.coppersurfer.tk%3A6969&amp;tr=udp%3A%2F%2Fexodus.desync.com%3A6969","seeders":0,"leechers":0,"uploader":"imsingh","files":2,"time":1292997333,"description":"Format                           : Matroska\nFile size                        : 320 MiB\nDuration                         : 1h 38mn\nOverall bit rate                 : 454 Kbps\nMovie name                       : Unstoppable 2010 R5 Hindi x264 - Henry Kharay\nEncoded date                     : UTC 2010-12-22 02:45:24\nWriting application              : mkvmerge v4.2.0 ('No Talking') built on Jul 28 2010 18:38:23\nWriting library                  : libebml v1.0.0 + libmatroska v1.0.0\n===================================================================================\nVideo\nID                               : 1\nFormat                           : AVC\nFormat/Info                      : Advanced Video Codec\nFormat profile                   : &lt;a class=&quot;__cf_email__&quot; href=&quot;/cdn-cgi/l/email-protection&quot; data-cfemail=&quot;723a1b151a323e415c42&quot;&gt;[email&amp;#160;protected]&lt;/a&gt;&lt;script cf-hash='f9e31' type=&quot;text/javascript&quot;&gt;\n/* &lt;![CDATA[ */!function(){try{var t=&quot;currentScript&quot;in document?document.currentScript:function(){for(var t=document.getElementsByTagName(&quot;script&quot;),e=t.length;e--;)if(t[e].getAttribute(&quot;cf-hash&quot;))return t[e]}();if(t&amp;&amp;t.previousSibling){var e,r,n,i,c=t.previousSibling,a=c.getAttribute(&quot;data-cfemail&quot;);if(a){for(e=&quot;&quot;,r=parseInt(a.substr(0,2),16),n=2;a.length-n;n+=2)i=parseInt(a.substr(n,2),16)^r,e+=String.fromCharCode(i);e=document.createTextNode(e),c.parentNode.replaceChild(e,c)}}}catch(u){}}();/* ]]&gt; */&lt;/script&gt;\nFormat settings, CABAC           : Yes\nFormat settings, ReFrames        : 4 frames\nMuxing mode                      : Container profile=&lt;a class=&quot;__cf_email__&quot; href=&quot;/cdn-cgi/l/email-protection&quot; data-cfemail=&quot;095c676267667e67493a2739&quot;&gt;[email&amp;#160;protected]&lt;/a&gt;&lt;script cf-hash='f9e31' type=&quot;text/javascript&quot;&gt;\n/* &lt;![CDATA[ */!function(){try{var t=&quot;currentScript&quot;in document?document.currentScript:function(){for(var t=document.getElementsByTagName(&quot;script&quot;),e=t.length;e--;)if(t[e].getAttribute(&quot;cf-hash&quot;))return t[e]}();if(t&amp;&amp;t.previousSibling){var e,r,n,i,c=t.previousSibling,a=c.getAttribute(&quot;data-cfemail&quot;);if(a){for(e=&quot;&quot;,r=parseInt(a.substr(0,2),16),n=2;a.length-n;n+=2)i=parseInt(a.substr(n,2),16)^r,e+=String.fromCharCode(i);e=document.createTextNode(e),c.parentNode.replaceChild(e,c)}}}catch(u){}}();/* ]]&gt; */&lt;/script&gt;\nCodec ID                         : V_MPEG4/ISO/AVC\nDuration                         : 1h 38mn\nBit rate                         : 423 Kbps\nWidth                            : 720 pixels\nHeight                           : 304 pixels\nDisplay aspect ratio             : 2.35:1\nFrame rate                       : 24.000 fps\nColor space                      : YUV\nChroma subsampling               : 4:2:0\nBit depth                        : 8 bits\nScan type                        : Progressive\nBits/(Pixel*Frame)               : 0.081\nStream size                      : 291 MiB (91%)\nTitle                            : Ripped By Henry\nWriting library                  : x264 \n===================================================================================\nAudio\nID                               : 2\nFormat                           : MPEG Audio\nFormat version                   : Version 2\nFormat profile                   : Layer 3\nCodec ID                         : A_MPEG/L3\nCodec ID/Hint                    : MP3\nDuration                         : 1h 38mn\nBit rate mode                    : Constant\nBit rate                         : 32.0 Kbps\nChannel(s)                       : 1 channel\nSampling rate                    : 22.05 KHz\nStream size                      : 22.5 MiB (7%)\nTitle                            : Henry\nLanguage                         : Hindi\n\nScreens: &lt;a href=&quot;\nhttp://leetleech.org/images/84438426075866764403.png&quot; rel=&quot;nofollow&quot; target=&quot;_NEW&quot;&gt;\nhttp://leetleech.org/images/84438426075866764403.png&lt;/a&gt; &lt;a href=&quot;\nhttp://leetleech.org/images/77494936474148751532.png&quot; rel=&quot;nofollow&quot; target=&quot;_NEW&quot;&gt;\nhttp://leetleech.org/images/77494936474148751532.png&lt;/a&gt; &lt;a href=&quot;\nhttp://leetleech.org/images/56614447917309044677.png&quot; rel=&quot;nofollow&quot; target=&quot;_NEW&quot;&gt;\nhttp://leetleech.org/images/56614447917309044677.png&lt;/a&gt; &lt;a href=&quot;\nhttp://ihttp://leetleech.org/images/68336937687572121996.png&quot; rel=&quot;nofollow&quot; target=&quot;_NEW&quot;&gt;\nhttp://ihttp://leetleech.org/images/68336937687572121996.png&lt;/a&gt; &lt;a href=&quot;\nhttp://leetleech.org/images/68336937687572121996.png&quot; rel=&quot;nofollow&quot; target=&quot;_NEW&quot;&gt;\nhttp://leetleech.org/images/68336937687572121996.png&lt;/a&gt; &lt;a href=&quot;\nhttp://leetleech.org/images/31090320961401273943.png&quot; rel=&quot;nofollow&quot; target=&quot;_NEW&quot;&gt;\nhttp://leetleech.org/images/31090320961401273943.png&lt;/a&gt; &lt;a href=&quot;\nhttp://img843.imageshack.us/img843/8459/unstoppable2010r5hindib.jpg&quot; rel=&quot;nofollow&quot; target=&quot;_NEW&quot;&gt;\nhttp://img843.imageshack.us/img843/8459/unstoppable2010r5hindib.jpg&lt;/a&gt;\n\nkeep Seeding\nthnx","torrent":{"xt":"urn:btih:4fd3c0f64bd973515dcd18c412f0eba21d2703bc","amp;dn":"Unstoppable+2010+R5+Hindi+x264+-+Henry","amp;tr":["udp%3A%2F%2Ftracker.openbittorrent.com%3A80","udp%3A%2F%2Fopen.demonii.com%3A1337","udp%3A%2F%2Ftracker.coppersurfer.tk%3A6969","udp%3A%2F%2Fexodus.desync.com%3A6969"],"infoHash":"4fd3c0f64bd973515dcd18c412f0eba21d2703bc","infoHashBuffer":{"type":"Buffer","data":[79,211,192,246,75,217,115,81,93,205,24,196,18,240,235,162,29,39,3,188]},"announce":[],"urlList":[]}}